<svg 
 xmlns="http://www.w3.org/2000/svg"
 xmlns:xlink="http://www.w3.org/1999/xlink"
 width="29px" height="25px">
<path fill-rule="evenodd"  fill="rgb(255, 255, 255)"
 d="M27.402,19.935 L17.200,24.381 C16.288,24.791 15.319,24.999 14.318,24.999 C13.055,24.999 11.815,24.659 10.732,24.016 L7.874,22.319 C7.424,22.051 6.708,21.870 6.089,21.794 C5.852,22.402 5.255,22.835 4.559,22.835 L1.280,22.835 C0.978,22.835 0.733,22.593 0.733,22.294 L0.733,12.556 C0.733,12.257 0.978,12.015 1.280,12.015 L4.559,12.015 C5.272,12.015 5.879,12.467 6.105,13.097 L9.979,13.097 C10.636,13.097 11.285,13.265 11.855,13.584 L14.743,15.192 C14.825,15.237 14.917,15.261 15.012,15.261 L18.551,15.261 C19.757,15.261 20.737,16.232 20.737,17.425 C20.737,17.555 20.724,17.683 20.701,17.808 L25.854,16.055 C26.856,15.700 27.968,16.087 28.443,16.957 C29.089,18.140 28.531,19.481 27.402,19.935 ZM5.106,13.638 C5.106,13.340 4.860,13.097 4.559,13.097 L1.826,13.097 L1.826,21.753 L4.559,21.753 C4.860,21.753 5.104,21.512 5.106,21.215 L5.106,13.638 ZM27.482,17.471 C27.265,17.074 26.711,16.899 26.221,17.074 C26.219,17.075 19.576,19.336 19.576,19.336 C19.262,19.501 18.909,19.589 18.551,19.589 L12.995,19.589 C12.693,19.589 12.448,19.347 12.448,19.048 C12.448,18.749 12.693,18.507 12.995,18.507 L18.551,18.507 C19.153,18.507 19.644,18.020 19.644,17.425 C19.644,16.829 19.154,16.343 18.551,16.343 L15.012,16.343 C14.730,16.343 14.452,16.271 14.207,16.134 L11.319,14.527 C10.911,14.299 10.448,14.179 9.979,14.179 L6.199,14.179 L6.199,20.717 C6.948,20.806 7.824,21.027 8.436,21.391 L11.295,23.088 C12.208,23.631 13.253,23.917 14.318,23.917 C15.162,23.917 15.981,23.742 16.751,23.395 C16.753,23.394 26.969,18.941 26.969,18.941 C26.975,18.939 26.981,18.937 26.986,18.934 C27.538,18.716 27.808,18.067 27.482,17.471 ZM3.466,15.261 C3.164,15.261 2.919,15.019 2.919,14.720 C2.919,14.422 3.164,14.179 3.466,14.179 C3.768,14.179 4.012,14.422 4.012,14.720 C4.012,15.019 3.768,15.261 3.466,15.261 ZM9.970,4.765 C10.272,4.765 10.517,5.008 10.517,5.307 C10.517,5.606 10.272,5.847 9.970,5.847 C9.668,5.847 9.424,5.606 9.424,5.307 C9.424,5.008 9.668,4.765 9.970,4.765 ZM17.368,13.122 C17.265,13.210 17.137,13.254 17.009,13.254 C16.882,13.254 16.755,13.210 16.652,13.122 C13.944,10.799 11.794,9.217 10.521,7.566 C10.338,7.329 10.384,6.989 10.624,6.808 C10.864,6.626 11.207,6.672 11.390,6.910 C12.520,8.374 14.507,9.871 17.009,11.999 C21.116,8.493 23.492,6.758 23.492,4.352 C23.492,2.487 22.202,1.081 20.492,1.081 C18.238,1.081 17.478,3.701 17.471,3.728 C17.405,3.962 17.190,4.125 16.944,4.125 C16.698,4.125 16.483,3.962 16.417,3.728 C16.050,2.452 14.956,1.081 13.397,1.081 C12.063,1.081 10.945,1.950 10.546,3.295 C10.462,3.582 10.158,3.747 9.869,3.662 C9.579,3.578 9.413,3.278 9.498,2.991 C10.036,1.174 11.566,-0.000 13.397,-0.000 C14.970,-0.000 16.171,0.898 16.944,2.240 C17.719,0.896 18.921,-0.000 20.492,-0.000 C22.883,-0.000 24.586,1.972 24.586,4.352 C24.586,7.360 21.827,9.296 17.368,13.122 Z"/>
</svg>