<svg xmlns="http://www.w3.org/2000/svg" width="24" height="25" viewBox="0 0 24 25">
  <defs>
    <style>
      .cls-1 {
        fill: #ff5a5a;
        fill-rule: evenodd;
      }
    </style>
  </defs>
  <path id="Icon" class="cls-1" d="M1205.22,1327.41a0.356,0.356,0,0,0-.35.36v5.68a0.843,0.843,0,0,1-.84.86h-18.06a0.843,0.843,0,0,1-.84-0.86v-5.68a0.363,0.363,0,0,0-.35-0.36,0.356,0.356,0,0,0-.35.36v5.68a1.562,1.562,0,0,0,1.54,1.58h18.06a1.562,1.562,0,0,0,1.54-1.58v-5.68A0.35,0.35,0,0,0,1205.22,1327.41Zm0.86-11.12h-2.04a4.279,4.279,0,0,0,1.38-1.95,3.016,3.016,0,0,0-.6-2.84,3.373,3.373,0,0,0-3.07-1.48c-1.43.13-2.95,1.24-4.49,3.29-0.25.34-.51,0.7-0.75,1.07a1.357,1.357,0,0,0-.89-0.35h-1.24a1.357,1.357,0,0,0-.89.35c-0.24-.37-0.5-0.73-0.75-1.07-1.54-2.05-3.06-3.16-4.49-3.29a3.373,3.373,0,0,0-3.07,1.48,3.016,3.016,0,0,0-.6,2.84,4.279,4.279,0,0,0,1.38,1.95h-2.04a0.928,0.928,0,0,0-.92.94v2.62a0.931,0.931,0,0,0,.92.95h0.51v4.46a0.35,0.35,0,0,0,.35.36,0.356,0.356,0,0,0,.35-0.36v-4.46h7.35v6.71a0.757,0.757,0,0,0,.01.15,0.686,0.686,0,0,0,.37.46,0.261,0.261,0,0,0,.08.03,0.448,0.448,0,0,0,.2.04,0.621,0.621,0,0,0,.39-0.14c0.01-.01.03-0.02,0.04-0.03l1.39-1.23,1.48,1.26h0a0.666,0.666,0,0,0,.42.16,0.722,0.722,0,0,0,.28-0.07,0.661,0.661,0,0,0,.38-0.61v-6.73h7.35v4.46a0.356,0.356,0,0,0,.35.36,0.35,0.35,0,0,0,.35-0.36v-4.46h0.51a0.931,0.931,0,0,0,.92-0.95v-2.62A0.928,0.928,0,0,0,1206.08,1316.29Zm-13.6,3.79h-8.56a0.224,0.224,0,0,1-.22-0.23v-2.62a0.222,0.222,0,0,1,.22-0.22h8.56v3.07Zm-3.31-4.68c-1.48-.74-2.14-1.42-2.26-1.81a0.539,0.539,0,0,1,.18-0.52,1.012,1.012,0,0,1,.93-0.55c0.33,0.03,1.27.32,2.78,2.33,0.39,0.51.72,1.02,0.98,1.44h-0.53C1190.74,1316.09,1189.7,1315.67,1189.17,1315.4Zm3.87-.1v0.99h-0.44a19.763,19.763,0,0,0-1.24-1.88c-1.54-2.04-2.63-2.54-3.28-2.61a1.749,1.749,0,0,0-1.54.82,1.243,1.243,0,0,0-.29,1.18c0.29,0.96,1.76,1.82,2.61,2.25q0.27,0.12.51,0.24h-2.23a4.3,4.3,0,0,1-1.89-2.17,2.311,2.311,0,0,1,.47-2.17,2.72,2.72,0,0,1,2.46-1.22c1.24,0.12,2.58,1.14,4.01,3.02,0.3,0.4.59,0.83,0.88,1.28A1.241,1.241,0,0,0,1193.04,1315.3Zm0.7,0.11a0.655,0.655,0,0,1,.64-0.66h1.24a0.655,0.655,0,0,1,.64.66v0.88h-2.52v-0.88Zm-0.56,12.01v-10.41h3.64v10.43m0,0-1.44-1.22a0.176,0.176,0,0,0-.05-0.04l-0.01-.01a0.142,0.142,0,0,0-.04-0.02c0-.01-0.01-0.01-0.02-0.01s-0.02-.01-0.03-0.02a0.02,0.02,0,0,1-.02-0.01c-0.01,0-.02-0.01-0.03-0.01s-0.02-.01-0.03-0.01-0.02-.01-0.03-0.01h-0.02a0.037,0.037,0,0,0-.03-0.01h-0.03c-0.01,0-.02-0.01-0.03-0.01h-0.11c-0.01,0-.02.01-0.03,0.01h-0.03c-0.01,0-.02.01-0.03,0.01h-0.02a0.076,0.076,0,0,1-.04.01c0,0.01-.01.01-0.02,0.01s-0.02.01-.03,0.02-0.02,0-.02.01-0.03.01-.04,0.01a0.01,0.01,0,0,1-.01.01,0.138,0.138,0,0,0-.04.03,0.01,0.01,0,0,0-.01.01,0.1,0.1,0,0,0-.05.04l-1.35,1.19m4.22-11.13h-0.44v-0.99a1.241,1.241,0,0,0-.03-0.27c0.29-.45.58-0.88,0.88-1.28,1.42-1.88,2.77-2.9,4.01-3.02a2.72,2.72,0,0,1,2.46,1.22,2.311,2.311,0,0,1,.47,2.17,4.3,4.3,0,0,1-1.89,2.17h-2.23q0.24-.12.51-0.24c0.85-.43,2.32-1.29,2.61-2.25a1.243,1.243,0,0,0-.29-1.18,1.749,1.749,0,0,0-1.54-.82c-0.65.07-1.74,0.57-3.28,2.61A19.763,19.763,0,0,0,1197.4,1316.29Zm1.34,0h-0.52c0.26-.42.59-0.93,0.98-1.44,1.51-2.01,2.45-2.3,2.78-2.33a1.012,1.012,0,0,1,.93.55,0.539,0.539,0,0,1,.18.52c-0.12.39-.78,1.07-2.26,1.81C1200.28,1315.67,1199.24,1316.09,1198.74,1316.29Zm7.56,3.56a0.224,0.224,0,0,1-.22.23h-8.56v-3.07h8.56a0.222,0.222,0,0,1,.22.22v2.62h0Z" transform="translate(-1183 -1310.03)"/>
</svg>
