<svg xmlns="http://www.w3.org/2000/svg" width="28" height="25" viewBox="0 0 28 25">
  <defs>
    <style>
      .cls-1 {
        fill: #fff;
        fill-rule: evenodd;
      }
    </style>
  </defs>
  <path id="Icon_copy" data-name="Icon copy" class="cls-1" d="M1008.47,1324.18a0.54,0.54,0,1,0,.54.54,0.54,0.54,0,0,0-.54-0.54h0Zm0,0,22.38,1.87-5.15,1.76a2.453,2.453,0,0,0,.04-0.39,2.177,2.177,0,0,0-2.19-2.16h-3.54a0.519,0.519,0,0,1-.27-0.07l-2.88-1.61a3.98,3.98,0,0,0-1.88-.48h-3.88a1.637,1.637,0,0,0-1.54-1.09h-3.28a0.555,0.555,0,0,0-.55.55v9.73a0.555,0.555,0,0,0,.55.55h3.28a1.647,1.647,0,0,0,1.53-1.05,5.02,5.02,0,0,1,1.78.53l2.86,1.7a7.041,7.041,0,0,0,3.59.98,6.971,6.971,0,0,0,2.88-.62l10.2-4.45a2.078,2.078,0,0,0,1.04-2.97,2.137,2.137,0,0,0-2.59-.91h0Zm-20.74,5.16a0.553,0.553,0,0,1-.55.54h-2.73v-8.65h2.73a0.546,0.546,0,0,1,.55.54v7.57Zm21.88-2.28a0.031,0.031,0,0,1-.02.01l-10.22,4.45a5.845,5.845,0,0,1-2.43.53,5.975,5.975,0,0,1-3.03-.83l-2.85-1.7a6.212,6.212,0,0,0-2.24-.67v-6.54h3.78a2.734,2.734,0,0,1,1.34.35l2.89,1.6a1.594,1.594,0,0,0,.8.21h3.54a1.085,1.085,0,1,1,0,2.17h-5.56a0.54,0.54,0,0,0,0,1.08h5.56a2.3,2.3,0,0,0,1.03-.25s6.64-2.26,6.64-2.27a1.048,1.048,0,0,1,1.26.4,1,1,0,0,1-.49,1.46h0Zm0,0-10.34-5.81a0.533,0.533,0,0,0,.36.13,0.551,0.551,0,0,0,.36-0.13c4.46-3.82,7.22-5.76,7.22-8.77a4.165,4.165,0,0,0-4.1-4.35,3.925,3.925,0,0,1-7.09,0,4.029,4.029,0,0,0-3.9,2.99,0.531,0.531,0,0,0,.37.67,0.548,0.548,0,0,0,.68-0.36,2.947,2.947,0,0,1,2.85-2.22,3.407,3.407,0,0,1,3.02,2.65,0.548,0.548,0,0,0,1.05,0c0.01-.03.77-2.65,3.02-2.65a3.077,3.077,0,0,1,3,3.27c0,2.41-2.37,4.14-6.48,7.65-2.5-2.13-4.49-3.63-5.62-5.09a0.553,0.553,0,0,0-.77-0.1,0.541,0.541,0,0,0-.1.76c1.27,1.65,3.42,3.23,6.13,5.55h0Zm0,0-6.68-8.35a0.54,0.54,0,1,0,.55.54,0.546,0.546,0,0,0-.55-0.54h0Zm0,0" transform="translate(-1005.72 -1310)"/>
</svg>
