<svg 
 xmlns="http://www.w3.org/2000/svg"
 xmlns:xlink="http://www.w3.org/1999/xlink"
 width="24px" height="26px">
<path fill-rule="evenodd"  fill="rgb(255, 90, 90)"
 d="M23.076,10.802 L22.574,10.802 L22.574,15.257 C22.574,15.455 22.417,15.616 22.223,15.616 C22.030,15.616 21.873,15.455 21.873,15.257 L21.873,10.802 L14.520,10.802 L14.520,17.528 C14.520,17.793 14.375,18.028 14.142,18.141 C14.051,18.184 13.955,18.206 13.860,18.206 C13.710,18.206 13.563,18.153 13.441,18.049 L11.959,16.792 L10.569,18.022 C10.557,18.033 10.544,18.043 10.531,18.053 C10.415,18.142 10.278,18.188 10.139,18.187 C10.071,18.187 10.003,18.175 9.936,18.153 C9.912,18.145 9.888,18.136 9.864,18.125 C9.671,18.034 9.538,17.861 9.495,17.656 C9.485,17.609 9.479,17.560 9.479,17.510 L9.479,10.802 L2.127,10.802 L2.127,15.259 C2.127,15.458 1.970,15.619 1.776,15.619 C1.583,15.619 1.426,15.458 1.426,15.259 L1.426,10.802 L0.924,10.802 C0.414,10.802 -0.000,10.377 -0.000,9.854 L-0.000,7.235 C-0.000,6.712 0.414,6.287 0.924,6.287 L2.962,6.287 C2.250,5.673 1.785,5.021 1.577,4.339 C1.371,3.662 1.307,2.620 2.176,1.504 C3.240,0.136 4.432,-0.059 5.245,0.018 C6.683,0.154 8.195,1.263 9.741,3.314 C9.994,3.650 10.246,4.008 10.493,4.383 C10.730,4.166 11.042,4.034 11.385,4.034 L12.615,4.034 C12.957,4.034 13.270,4.166 13.507,4.383 C13.754,4.008 14.006,3.650 14.259,3.314 C15.805,1.263 17.317,0.154 18.755,0.018 C19.568,-0.059 20.760,0.136 21.824,1.504 C22.693,2.620 22.629,3.662 22.423,4.339 C22.215,5.021 21.750,5.673 21.037,6.287 L23.076,6.287 C23.586,6.287 24.000,6.712 24.000,7.235 L24.000,9.854 C24.000,10.377 23.586,10.802 23.076,10.802 ZM0.924,7.005 C0.800,7.005 0.700,7.108 0.700,7.235 L0.700,9.854 C0.700,9.981 0.800,10.084 0.924,10.084 L9.479,10.084 L9.479,7.005 L9.468,7.005 L0.924,7.005 ZM8.781,6.287 C8.520,5.866 8.187,5.360 7.804,4.852 C6.289,2.842 5.353,2.552 5.020,2.520 C4.881,2.507 4.553,2.476 4.090,3.072 C3.851,3.379 3.892,3.515 3.914,3.588 C4.032,3.976 4.687,4.656 6.172,5.400 C6.704,5.667 7.736,6.087 8.252,6.287 L8.781,6.287 ZM9.187,3.754 C7.765,1.867 6.417,0.850 5.181,0.734 C4.540,0.673 3.593,0.835 2.723,1.952 C2.046,2.823 2.089,3.614 2.245,4.124 C2.473,4.871 3.111,5.598 4.142,6.287 L6.371,6.287 C6.206,6.212 6.036,6.131 5.864,6.046 C5.011,5.618 3.536,4.757 3.246,3.803 C3.127,3.411 3.221,3.037 3.543,2.623 C4.013,2.019 4.517,1.752 5.085,1.805 C5.727,1.866 6.817,2.367 8.358,4.412 C8.882,5.109 9.315,5.797 9.605,6.287 L9.720,6.287 L9.939,6.287 L10.045,6.287 L10.045,5.408 L10.045,5.296 C10.045,5.208 10.054,5.119 10.072,5.032 C9.783,4.579 9.485,4.150 9.187,3.754 ZM13.255,5.408 C13.255,5.046 12.968,4.752 12.615,4.752 L11.385,4.752 C11.032,4.752 10.745,5.047 10.745,5.408 L10.745,6.287 L13.255,6.287 L13.255,5.408 ZM13.820,7.005 L13.714,7.005 L10.286,7.005 L10.180,7.005 L10.180,17.418 L11.528,16.225 C11.543,16.212 11.559,16.199 11.575,16.187 C11.580,16.183 11.585,16.180 11.590,16.178 C11.602,16.169 11.613,16.161 11.625,16.154 C11.631,16.150 11.637,16.148 11.643,16.144 C11.654,16.138 11.666,16.131 11.677,16.126 C11.684,16.122 11.691,16.120 11.697,16.117 C11.708,16.112 11.719,16.107 11.731,16.102 C11.738,16.100 11.745,16.097 11.753,16.095 C11.764,16.091 11.775,16.087 11.786,16.085 C11.794,16.082 11.802,16.081 11.810,16.079 C11.820,16.076 11.831,16.073 11.841,16.071 C11.850,16.070 11.859,16.069 11.867,16.068 C11.877,16.066 11.888,16.064 11.898,16.064 C11.907,16.063 11.916,16.063 11.925,16.062 C11.935,16.061 11.945,16.061 11.955,16.061 C11.956,16.061 11.957,16.060 11.958,16.060 C11.967,16.060 11.977,16.061 11.986,16.062 C11.994,16.062 12.003,16.062 12.011,16.063 C12.022,16.064 12.032,16.065 12.043,16.067 C12.051,16.068 12.059,16.068 12.067,16.070 C12.078,16.072 12.088,16.074 12.099,16.077 C12.107,16.078 12.115,16.080 12.122,16.082 C12.133,16.085 12.144,16.088 12.155,16.092 C12.162,16.094 12.169,16.096 12.177,16.099 C12.188,16.103 12.198,16.108 12.209,16.112 C12.216,16.115 12.223,16.118 12.230,16.121 C12.241,16.126 12.252,16.132 12.262,16.138 C12.269,16.141 12.275,16.144 12.281,16.148 C12.293,16.154 12.304,16.162 12.315,16.169 C12.320,16.173 12.326,16.176 12.331,16.180 C12.347,16.191 12.363,16.203 12.379,16.216 L13.820,17.439 L13.820,7.005 ZM21.755,4.124 C21.910,3.614 21.954,2.823 21.277,1.952 C20.407,0.835 19.460,0.673 18.819,0.734 C17.583,0.850 16.235,1.867 14.813,3.754 C14.515,4.150 14.217,4.579 13.927,5.031 C13.946,5.119 13.955,5.208 13.955,5.296 L13.955,5.408 L13.955,6.287 L14.061,6.287 L14.280,6.287 L14.395,6.287 C14.685,5.797 15.118,5.108 15.642,4.412 C17.183,2.367 18.273,1.866 18.915,1.805 C19.483,1.752 19.987,2.019 20.457,2.623 C20.779,3.037 20.873,3.411 20.754,3.803 C20.464,4.757 18.989,5.617 18.135,6.045 C17.964,6.131 17.794,6.212 17.629,6.287 L19.858,6.287 C20.889,5.598 21.527,4.871 21.755,4.124 ZM15.219,6.287 L15.741,6.287 C16.241,6.094 17.285,5.672 17.828,5.400 C19.313,4.656 19.968,3.976 20.086,3.588 C20.108,3.515 20.149,3.379 19.910,3.072 C19.447,2.476 19.119,2.507 18.979,2.520 C18.647,2.552 17.711,2.842 16.196,4.852 C15.813,5.360 15.480,5.866 15.219,6.287 ZM23.300,7.235 C23.300,7.108 23.199,7.005 23.076,7.005 L14.532,7.005 L14.520,7.005 L14.520,10.084 L23.076,10.084 C23.199,10.084 23.300,9.981 23.300,9.854 L23.300,7.235 ZM1.776,17.414 C1.970,17.414 2.127,17.575 2.127,17.774 L2.127,23.451 C2.127,23.926 2.503,24.312 2.966,24.312 L21.034,24.312 C21.497,24.312 21.873,23.926 21.873,23.451 L21.873,17.772 C21.873,17.573 22.030,17.412 22.223,17.412 C22.417,17.412 22.573,17.573 22.573,17.772 L22.573,23.451 C22.573,24.322 21.883,25.031 21.034,25.031 L2.966,25.031 C2.117,25.031 1.426,24.322 1.426,23.451 L1.426,17.774 C1.426,17.575 1.583,17.414 1.776,17.414 Z"/>
</svg>